# xmcd
#
# Track frame offsets:
#	150
#	13792
#	27620
#	40372
#	49760
#	59675
#	75197
#	86817
#	99090
#	112047
#	127075
#	138637
#	152895
#	167945
#	180710
#	193750
#	205990
#	218235
#	228845
#	240980
#	255020
#	265092
#	279835
#	292162
#
# Disc length: 4072 seconds
#
# Revision: 1
# Processed by: cddbd v1.5.2PL0 Copyright (c) Steve Scherf et al.
# Submitted via: audiograbber 1.83.01
#
DISCID=5a0fe618
DTITLE=Merle Haggard - 24 At No. 1
DYEAR=1993
DGENRE=Country
TTITLE0=I'm A Lonesome Fugitive
TTITLE1=Branded Man
TTITLE2=Sing Me Back Home
TTITLE3=The Legend Of Bonnie And Clyde
TTITLE4=Mama Tried
TTITLE5=Hungry Eyes
TTITLE6=Working Man Blues
TTITLE7=Okie From Muskogee
TTITLE8=The Fighting Side Of Me
TTITLE9=Daddy Frank (The Guitar Man)
TTITLE10=Carolyn
TTITLE11=Grandma Harp
TTITLE12=It's Not Love (But It's Not Bad)
TTITLE13=I Wonder If They Ever Think Of Me
TTITLE14=Everybody's Had The Blues
TTITLE15=If We Make It Through December
TTITLE16=Things Aren't Funny Anymore
TTITLE17=Old Man From The Mountain
TTITLE18=Kentucky Gambler
TTITLE19=Always Wanting You
TTITLE20=Movin' On
TTITLE21=It's All In The Movies
TTITLE22=The Roots Of My Raising
TTITLE23=Cherokee Maiden
EXTD=
EXTT0=
EXTT1=
EXTT2=
EXTT3=
EXTT4=
EXTT5=
EXTT6=
EXTT7=
EXTT8=
EXTT9=
EXTT10=
EXTT11=
EXTT12=
EXTT13=
EXTT14=
EXTT15=
EXTT16=
EXTT17=
EXTT18=
EXTT19=
EXTT20=
EXTT21=
EXTT22=
EXTT23=
PLAYORDER=
